HIERARCHY
ROOT RootJoint
{
    OFFSET   0.000000   0.000000   0.000000
    CHANNELS 6 Xposition Yposition Zposition Xrotation Yrotation Zrotation
    JOINT pelvis_lowerback
    {
        OFFSET   0.000000   0.093605   0.000000
        CHANNELS 3 Xrotation Yrotation Zrotation
        JOINT lowerback_torso
        {
            OFFSET   0.000000   0.100000   0.000000
            CHANNELS 3 Xrotation Yrotation Zrotation
            JOINT torso_head
            {
                OFFSET   0.000000   0.282350   0.000000
                CHANNELS 3 Xrotation Yrotation Zrotation
                End Site
                {
                    OFFSET   0.000000   0.192650   0.000000
                }
            }
            JOINT rTorso_Clavicle
            {
                OFFSET  -0.001000   0.157500   0.000000
                CHANNELS 3 Xrotation Yrotation Zrotation
                JOINT rShoulder
                {
                    OFFSET  -0.117647   0.000000   0.000000
                    CHANNELS 3 Xrotation Yrotation Zrotation
                    JOINT rElbow
                    {
                        OFFSET  -0.245000   0.000000   0.000000
                        CHANNELS 3 Xrotation Yrotation Zrotation
                        JOINT rWrist
                        {
                            OFFSET  -0.240000   0.000000   0.000000
                            CHANNELS 3 Xrotation Yrotation Zrotation
                            End Site
                            {
                                OFFSET  -0.116353  -0.002500   0.000000
                            }
                        }
                    }
                }
            }
            JOINT lTorso_Clavicle
            {
                OFFSET   0.001000   0.157500   0.000000
                CHANNELS 3 Xrotation Yrotation Zrotation
                JOINT lShoulder
                {
                    OFFSET   0.117647   0.000000   0.000000
                    CHANNELS 3 Xrotation Yrotation Zrotation
                    JOINT lElbow
                    {
                        OFFSET   0.245000   0.000000   0.000000
                        CHANNELS 3 Xrotation Yrotation Zrotation
                        JOINT lWrist
                        {
                            OFFSET   0.240000   0.000000   0.000000
                            CHANNELS 3 Xrotation Yrotation Zrotation
                            End Site
                            {
                                OFFSET   0.116353  -0.002500   0.000000
                            }
                        }
                    }
                }
            }
        }
    }
    JOINT rHip
    {
        OFFSET  -0.100000  -0.051395   0.000000
        CHANNELS 3 Xrotation Yrotation Zrotation
        JOINT rKnee
        {
            OFFSET   0.000000  -0.410000   0.000000
            CHANNELS 3 Xrotation Yrotation Zrotation
            JOINT rAnkle
            {
                OFFSET   0.000000  -0.390000   0.000000
                CHANNELS 3 Xrotation Yrotation Zrotation
                JOINT rToeJoint
                {
                    OFFSET   0.000000  -0.050000   0.130000
                    CHANNELS 3 Xrotation Yrotation Zrotation
                    End Site
                    {
                        OFFSET  -0.010000   0.002000   0.060000
                    }
                }
            }
        }
    }
    JOINT lHip
    {
        OFFSET   0.100000  -0.051395   0.000000
        CHANNELS 3 Xrotation Yrotation Zrotation
        JOINT lKnee
        {
            OFFSET   0.000000  -0.410000   0.000000
            CHANNELS 3 Xrotation Yrotation Zrotation
            JOINT lAnkle
            {
                OFFSET   0.000000  -0.390000   0.000000
                CHANNELS 3 Xrotation Yrotation Zrotation
                JOINT lToeJoint
                {
                    OFFSET   0.000000  -0.050000   0.130000
                    CHANNELS 3 Xrotation Yrotation Zrotation
                    End Site
                    {
                        OFFSET   0.010000   0.002000   0.060000
                    }
                }
            }
        }
    }
}
MOTION
Frames: 5
Frame Time:   0.008333
 -2.359098   0.833647   4.039976   7.020102   3.113702   1.960332  20.432433   0.531977  -3.078330  -5.876051  -0.793140  -0.686779  -9.670293  -0.678330  -0.110837 -13.158511  17.105290  -4.051217 -22.066413  13.342111  24.432651  -0.338965  57.575357   0.208886   2.121441   0.560392  -7.429317  -9.197336 -15.397973   3.479826 -16.777347 -11.538510 -28.432633  -0.244103 -54.343864  -0.124327  -4.167743  -5.219534   6.750587 -29.982735  -2.432534  -7.518601  62.423237  -0.003743   0.005275 -25.473197  -7.499808   1.933177 -12.667080   0.010128   0.012059 -38.956033   0.823945  -2.126150  71.825910   0.005686   0.006585   0.335373   5.114696  -0.882547 -47.020391  -0.005042   0.003009
 -2.358322   0.846747   4.048787   6.712756   3.167910   1.784830  19.333162   0.732917  -2.646390  -5.409509  -0.857917  -0.976886  -8.574260  -0.963062  -0.122126 -13.134631  17.254790  -5.464575 -22.632272  13.381690  24.115392  -0.301205  58.471407   0.181020   2.100881   0.946440  -7.938661  -8.841806 -14.858986   4.824411 -17.222201 -11.668695 -28.062566  -0.224665 -55.365165  -0.111103  -4.163592  -5.551328   7.339148 -28.386544  -2.766671  -7.410480  60.378658  -0.003668   0.005588 -21.869905  -7.421031   2.676925 -13.536412   0.010034   0.011124 -37.030135   0.630318  -1.920846  69.306738   0.004423   0.002908   2.786100   4.756092  -1.457128 -46.616418  -0.002419   0.003052
 -2.357739   0.860892   4.058264   6.366296   3.111703   1.530779  18.153507   0.941070  -2.193635  -4.910410  -0.891955  -1.222332  -7.494486  -1.239837  -0.121431 -13.023026  17.335345  -6.804971 -23.085609  13.384916  23.846847  -0.266912  59.283017   0.156670   2.077127   1.207415  -8.075194  -8.436675 -14.224715   6.072239 -17.553959 -11.728800 -27.747751  -0.205315 -56.307057  -0.099365  -4.158188  -5.807686   7.671432 -26.832592  -3.138314  -7.158661  58.359991  -0.001770   0.006647 -18.093146  -7.172418   3.430179 -12.280755   0.004006   0.007153 -34.858117   0.417219  -1.591215  66.450063   0.005107   0.000592   5.402463   4.396578  -1.992948 -46.293216  -0.000783   0.002716
 -2.357332   0.875691   4.068220   6.009739   2.984367   1.239962  16.947146   1.140613  -1.749723  -4.466229  -0.911886  -1.436151  -6.482138  -1.499316  -0.113357 -12.889934  17.356713  -8.057482 -23.480120  13.357181  23.598719  -0.237636  60.029194   0.136742   2.044272   1.380792  -8.078564  -8.041388 -13.555365   7.227154 -17.827148 -11.744014 -27.457377  -0.187818 -57.173263  -0.090100  -4.162210  -5.975128   7.893640 -25.381611  -3.523220  -6.788849  56.485060   0.001237   0.007545 -14.475719  -6.832243   4.136942 -10.426774  -0.004292   0.003615 -32.527100   0.180663  -1.206816  63.310120   0.007736   0.000320   8.216447   4.039491  -2.483569 -46.034638   0.000171   0.002157
 -2.357050   0.890835   4.078538   5.673978   2.807379   0.911976  15.709674   1.325094  -1.302192  -4.104676  -0.927376  -1.620154  -5.539035  -1.741477  -0.100950 -12.758678  17.337589  -9.238106 -23.836527  13.311324  23.357215  -0.213125  60.717680   0.120757   2.005653   1.492932  -8.046153  -7.675216 -12.881451   8.303813 -18.065086 -11.734822 -27.181853  -0.172611 -57.974285  -0.083099  -4.173075  -6.081272   8.076743 -24.068459  -3.901124  -6.340929  54.762710   0.004225   0.008416 -11.104491  -6.474096   4.776164  -8.714460  -0.010947   0.000980 -30.106272  -0.073623  -0.780520  59.933279   0.011579   0.002119  11.230309   3.693319  -2.925262 -45.827765   0.000668   0.001553
